# xmcd
#
# Track frame offsets:
#   150
#   20261
#   40385
#   58779
#   78126
#   99076
#   120746
#   139696
#   163901
#   177379
#   195707
#   217805
#   235274
#   254818
#   271857
#
# Disc length: 3914 seconds
#
# Revision: 0
# Processed by: cddbd v1.5.2PL0 Copyright (c) Steve Scherf et al.
# Submitted via: GXTranscoder 2.0.1939
#
DISCID=cd0f480f
DTITLE=Young Dro - Best Thang Smokin'
DYEAR=1900
DGENRE=Hip Hop
TTITLE0=They Don't Really Know Bout Dro
TTITLE1=Man In The Trunk
TTITLE2=Presidential
TTITLE3=Shoulder Lean
TTITLE4=U Don't  See Me
TTITLE5=Rubberband Banks
TTITLE6=We Lied
TTITLE7=My Girl
TTITLE8=100 Yard Dash
TTITLE9=Hear Me Cry
TTITLE10=Gangsta
TTITLE11=High Five
TTITLE12=Fresh
TTITLE13=What It Is
TTITLE14=It Ain't Over
EXTD=
EXTT0=
EXTT1=
EXTT2=
EXTT3=
EXTT4=
EXTT5=
EXTT6=
EXTT7=
EXTT8=
EXTT9=
EXTT10=
EXTT11=
EXTT12=
EXTT13=
EXTT14=
PLAYORDER=
